<?xml version="1.0" encoding="UTF-8"?>
<svg width="1980px" height="1080px" viewBox="0 0 1980 1080" version="1.1" xmlns="http://www.w3.org/2000/svg" xmlns:xlink="http://www.w3.org/1999/xlink">
    <!-- Generator: Sketch 53 (72520) - https://sketchapp.com -->
    <title>Behance Copy 4</title>
    <desc>Created with Sketch.</desc>
    <g id="Behance-Copy-4" stroke="none" stroke-width="1" fill="none" fill-rule="evenodd">
        <path d="M550.52797,564 C570.386963,564 585.435044,568.956629 595.672215,578.869887 C605.909385,588.783144 611,602.205027 611,619.079842 L611,620.806309 C611,638.015278 605.965326,651.659931 595.895978,661.795959 C585.770689,671.931986 570.610726,677 550.304207,677 C530.221452,677 515.117429,671.931986 505.104022,661.740266 C495.034674,651.604239 490,637.959586 490,620.806309 L490,619.079842 C490,602.093642 495.090615,588.671759 505.271845,578.814194 C515.397134,568.956629 530.501156,564 550.52797,564 Z M553,630.478261 L553,609.850932 C553,607.950311 552.127907,607 550.383721,607 C548.813953,607 548,607.950311 548,609.850932 L548,630.590062 C548,632.881988 548.813953,634 550.383721,634 C552.127907,634 553,632.826087 553,630.478261 Z M676.04186,566.499486 L715,566 L715,674 L657.4,674 L657.4,615.893114 L643,615.893114 L643,582.871531 C652.209302,582.039054 659.018605,580.485098 663.372093,578.265159 C667.669767,576.045221 671.911628,572.10483 676.04186,566.499486 Z M808.52797,564 C828.386963,564 843.435044,568.956629 853.672215,578.869887 C863.909385,588.783144 869,602.205027 869,619.079842 L869,620.806309 C869,638.015278 863.965326,651.659931 853.895978,661.795959 C843.770689,671.931986 828.610726,677 808.304207,677 C788.221452,677 773.117429,671.931986 763.104022,661.740266 C753.034674,651.604239 748,637.959586 748,620.806309 L748,619.079842 C748,602.093642 753.090615,588.671759 763.271845,578.814194 C773.397134,568.956629 788.501156,564 808.52797,564 Z M812,630.478261 L812,609.850932 C812,607.950311 811.127907,607 809.383721,607 C807.813953,607 807,607.950311 807,609.850932 L807,630.590062 C807,632.881988 807.813953,634 809.383721,634 C811.127907,634 812,632.826087 812,630.478261 Z M934.04186,566.499486 L973,566 L973,674 L915.4,674 L915.4,615.893114 L901,615.893114 L901,582.871531 C910.209302,582.039054 917.018605,580.485098 921.372093,578.265159 C925.669767,576.045221 929.911628,572.10483 934.04186,566.499486 Z M1067.52797,564 C1087.38696,564 1102.43504,568.956629 1112.67221,578.869887 C1122.90939,588.783144 1128,602.205027 1128,619.079842 L1128,620.806309 C1128,638.015278 1122.96533,651.659931 1112.89598,661.795959 C1102.77069,671.931986 1087.61073,677 1067.30421,677 C1047.22145,677 1032.11743,671.931986 1022.10402,661.740266 C1012.03467,651.604239 1007,637.959586 1007,620.806309 L1007,619.079842 C1007,602.093642 1012.09061,588.671759 1022.27184,578.814194 C1032.39713,568.956629 1047.50116,564 1067.52797,564 Z M1070,630.478261 L1070,609.850932 C1070,607.950311 1069.12791,607 1067.38372,607 C1065.81395,607 1065,607.950311 1065,609.850932 L1065,630.590062 C1065,632.881988 1065.81395,634 1067.38372,634 C1069.12791,634 1070,632.826087 1070,630.478261 Z M1192.04186,566.499486 L1231,566 L1231,674 L1173.4,674 L1173.4,615.893114 L1159,615.893114 L1159,582.871531 C1168.2093,582.039054 1175.0186,580.485098 1179.37209,578.265159 C1183.66977,576.045221 1187.91163,572.10483 1192.04186,566.499486 Z M1297.04186,566.499486 L1336,566 L1336,674 L1278.4,674 L1278.4,615.893114 L1264,615.893114 L1264,582.871531 C1273.2093,582.039054 1280.0186,580.485098 1284.37209,578.265159 C1288.66977,576.045221 1292.91163,572.10483 1297.04186,566.499486 Z M1430.52797,564 C1450.38696,564 1465.43504,568.956629 1475.67221,578.869887 C1485.90939,588.783144 1491,602.205027 1491,619.079842 L1491,620.806309 C1491,638.015278 1485.96533,651.659931 1475.89598,661.795959 C1465.77069,671.931986 1450.61073,677 1430.30421,677 C1410.22145,677 1395.11743,671.931986 1385.10402,661.740266 C1375.03467,651.604239 1370,637.959586 1370,620.806309 L1370,619.079842 C1370,602.093642 1375.09061,588.671759 1385.27184,578.814194 C1395.39713,568.956629 1410.50116,564 1430.52797,564 Z M1433,630.478261 L1433,609.850932 C1433,607.950311 1432.12791,607 1430.38372,607 C1428.81395,607 1428,607.950311 1428,609.850932 L1428,630.590062 C1428,632.881988 1428.81395,634 1430.38372,634 C1432.12791,634 1433,632.826087 1433,630.478261 Z" id="01010110" fill="#FFFFFF"></path>
        <path d="M550.52797,404 C570.386963,404 585.435044,408.956629 595.672215,418.869887 C605.909385,428.783144 611,442.205027 611,459.079842 L611,460.806309 C611,478.015278 605.965326,491.659931 595.895978,501.795959 C585.770689,511.931986 570.610726,517 550.304207,517 C530.221452,517 515.117429,511.931986 505.104022,501.740266 C495.034674,491.604239 490,477.959586 490,460.806309 L490,459.079842 C490,442.093642 495.090615,428.671759 505.271845,418.814194 C515.397134,408.956629 530.501156,404 550.52797,404 Z M553,470.478261 L553,449.850932 C553,447.950311 552.127907,447 550.383721,447 C548.813953,447 548,447.950311 548,449.850932 L548,470.590062 C548,472.881988 548.813953,474 550.383721,474 C552.127907,474 553,472.826087 553,470.478261 Z M676.04186,406.499486 L715,406 L715,514 L657.4,514 L657.4,455.893114 L643,455.893114 L643,422.871531 C652.209302,422.039054 659.018605,420.485098 663.372093,418.265159 C667.669767,416.045221 671.911628,412.10483 676.04186,406.499486 Z M780.04186,406.499486 L819,406 L819,514 L761.4,514 L761.4,455.893114 L747,455.893114 L747,422.871531 C756.209302,422.039054 763.018605,420.485098 767.372093,418.265159 C771.669767,416.045221 775.911628,412.10483 780.04186,406.499486 Z M913.52797,404 C933.386963,404 948.435044,408.956629 958.672215,418.869887 C968.909385,428.783144 974,442.205027 974,459.079842 L974,460.806309 C974,478.015278 968.965326,491.659931 958.895978,501.795959 C948.770689,511.931986 933.610726,517 913.304207,517 C893.221452,517 878.117429,511.931986 868.104022,501.740266 C858.034674,491.604239 853,477.959586 853,460.806309 L853,459.079842 C853,442.093642 858.090615,428.671759 868.271845,418.814194 C878.397134,408.956629 893.501156,404 913.52797,404 Z M916,470.478261 L916,449.850932 C916,447.950311 915.127907,447 913.383721,447 C911.813953,447 911,447.950311 911,449.850932 L911,470.590062 C911,472.881988 911.813953,474 913.383721,474 C915.127907,474 916,472.826087 916,470.478261 Z M1039.04186,406.499486 L1078,406 L1078,514 L1020.4,514 L1020.4,455.893114 L1006,455.893114 L1006,422.871531 C1015.2093,422.039054 1022.0186,420.485098 1026.37209,418.265159 C1030.66977,416.045221 1034.91163,412.10483 1039.04186,406.499486 Z M1172.52797,404 C1192.38696,404 1207.43504,408.956629 1217.67221,418.869887 C1227.90939,428.783144 1233,442.205027 1233,459.079842 L1233,460.806309 C1233,478.015278 1227.96533,491.659931 1217.89598,501.795959 C1207.77069,511.931986 1192.61073,517 1172.30421,517 C1152.22145,517 1137.11743,511.931986 1127.10402,501.740266 C1117.03467,491.604239 1112,477.959586 1112,460.806309 L1112,459.079842 C1112,442.093642 1117.09061,428.671759 1127.27184,418.814194 C1137.39713,408.956629 1152.50116,404 1172.52797,404 Z M1175,470.478261 L1175,449.850932 C1175,447.950311 1174.12791,447 1172.38372,447 C1170.81395,447 1170,447.950311 1170,449.850932 L1170,470.590062 C1170,472.881988 1170.81395,474 1172.38372,474 C1174.12791,474 1175,472.826087 1175,470.478261 Z M1297.04186,406.499486 L1336,406 L1336,514 L1278.4,514 L1278.4,455.893114 L1264,455.893114 L1264,422.871531 C1273.2093,422.039054 1280.0186,420.485098 1284.37209,418.265159 C1288.66977,416.045221 1292.91163,412.10483 1297.04186,406.499486 Z M1430.52797,404 C1450.38696,404 1465.43504,408.956629 1475.67221,418.869887 C1485.90939,428.783144 1491,442.205027 1491,459.079842 L1491,460.806309 C1491,478.015278 1485.96533,491.659931 1475.89598,501.795959 C1465.77069,511.931986 1450.61073,517 1430.30421,517 C1410.22145,517 1395.11743,511.931986 1385.10402,501.740266 C1375.03467,491.604239 1370,477.959586 1370,460.806309 L1370,459.079842 C1370,442.093642 1375.09061,428.671759 1385.27184,418.814194 C1395.39713,408.956629 1410.50116,404 1430.52797,404 Z M1433,470.478261 L1433,449.850932 C1433,447.950311 1432.12791,447 1430.38372,447 C1428.81395,447 1428,447.950311 1428,449.850932 L1428,470.590062 C1428,472.881988 1428.81395,474 1430.38372,474 C1432.12791,474 1433,472.826087 1433,470.478261 Z" id="01101010" stroke="#FFFFFF" stroke-width="3"></path>
    </g>
</svg>