<?xml version="1.0" encoding="UTF-8" standalone="no"?>
<!DOCTYPE svg PUBLIC "-//W3C//DTD SVG 1.1//EN" "http://www.w3.org/Graphics/SVG/1.1/DTD/svg11.dtd">
<svg width="100%" height="100%" viewBox="0 0 1980 1080" version="1.1" xmlns="http://www.w3.org/2000/svg" xmlns:xlink="http://www.w3.org/1999/xlink" xml:space="preserve" xmlns:serif="http://www.serif.com/" style="fill-rule:evenodd;clip-rule:evenodd;stroke-miterlimit:10;">
    <g transform="matrix(1,0,0,1,0,-647)">
        <clipPath id="_clip1">
            <path d="M975,1329L1451,398L499,398L975,1329Z"/>
        </clipPath>
        <g clip-path="url(#_clip1)">
            <rect x="494" y="393" width="962" height="941" style="fill:white;"/>
        </g>
    </g>
    <g transform="matrix(1,0,0,1,499,-249)">
        <path d="M476,931L957,0L0,0L476,931Z" style="fill:none;stroke:black;stroke-width:4px;"/>
    </g>
    <g transform="matrix(1,0,0,1,0,-647)">
        <clipPath id="_clip2">
            <path d="M975,1329L1355,398L595,398L975,1329Z"/>
        </clipPath>
        <g clip-path="url(#_clip2)">
            <rect x="590" y="393" width="770" height="941" style="fill:white;"/>
        </g>
    </g>
    <g transform="matrix(1,0,0,1,595,-249)">
        <path d="M380,931L760,0L0,0L380,931Z" style="fill:none;stroke:black;stroke-width:4px;"/>
    </g>
    <g transform="matrix(1,0,0,1,0,-647)">
        <clipPath id="_clip3">
            <path d="M975,1329L1291,398L659,398L975,1329Z"/>
        </clipPath>
        <g clip-path="url(#_clip3)">
            <rect x="654" y="393" width="642" height="941" style="fill:white;"/>
        </g>
    </g>
    <g transform="matrix(1,0,0,1,659,-249)">
        <path d="M316,931L632,0L0,0L316,931Z" style="fill:none;stroke:black;stroke-width:4px;"/>
    </g>
    <g transform="matrix(1,0,0,1,0,-647)">
        <clipPath id="_clip4">
            <path d="M975,1329L1219,398L731,398L975,1329Z"/>
        </clipPath>
        <g clip-path="url(#_clip4)">
            <rect x="726" y="393" width="498" height="941" style="fill:white;"/>
        </g>
    </g>
    <g transform="matrix(1,0,0,1,731,-249)">
        <path d="M244,931L488,0L0,0L244,931Z" style="fill:none;stroke:black;stroke-width:4px;"/>
    </g>
    <g transform="matrix(1,0,0,1,0,-647)">
        <clipPath id="_clip5">
            <path d="M975.8,1329L1147,398L804.6,398L975.8,1329Z"/>
        </clipPath>
        <g clip-path="url(#_clip5)">
            <rect x="799.6" y="393" width="352.4" height="941" style="fill:white;"/>
        </g>
    </g>
    <g transform="matrix(1,0,0,1,804.6,-249)">
        <path d="M171.2,931L342.4,0L0,0L171.2,931Z" style="fill:none;stroke:black;stroke-width:4px;"/>
    </g>
    <g transform="matrix(1,0,0,1,0,138)">
        <clipPath id="_clip6">
            <path d="M773.138,312L977.86,378.256L979.138,630L781.235,560.896L773.138,312Z"/>
        </clipPath>
        <g clip-path="url(#_clip6)">
            <rect x="768.138" y="307" width="216" height="328"/>
        </g>
    </g>
    <g transform="matrix(1,0,0,1,0,139.859)">
        <clipPath id="_clip7">
            <path d="M1179.86,322L975,383.712L978.279,618.141L1180,551.247L1179.86,322Z"/>
        </clipPath>
        <g clip-path="url(#_clip7)">
            <rect x="970" y="317" width="215" height="306.141"/>
        </g>
    </g>
    <g transform="matrix(1,0,0,1,0,179.467)">
        <clipPath id="_clip8">
            <path d="M1020.71,387.428C1020.72,386.924 1020.63,386.704 1020.45,386.766L1013.81,389.054L1013.68,425.348L1020.32,423.06C1020.5,422.998 1020.59,422.715 1020.59,422.211L1020.71,387.428ZM985,579.86L985.843,338.276L1035.02,321.326C1044.32,318.119 1048.93,326.723 1048.86,347.139L1048.62,417.46C1048.58,429.054 1046.25,436.401 1041.64,439.5C1046.33,439.646 1048.65,445.516 1048.61,457.111L1048.37,528.187C1048.3,548.099 1043.56,559.673 1034.17,562.91L985,579.86ZM1020.42,471.737C1020.42,471.233 1020.33,471.013 1020.15,471.075L1013.51,473.363L1013.39,510.035L1020.02,507.747C1020.2,507.685 1020.3,507.402 1020.3,506.898L1020.42,471.737Z" clip-rule="nonzero"/>
        </clipPath>
        <g clip-path="url(#_clip8)">
            <rect x="980" y="315.673" width="73.862" height="269.187" style="fill:white;"/>
        </g>
    </g>
    <g transform="matrix(1,0,0,-1,985,756.774)">
        <clipPath id="_clip9">
            <path d="M-60,316.634L123.862,316.634L123.862,-62.554L-60,-62.554L-60,316.634ZM35.713,189.879C35.715,190.382 35.626,190.603 35.445,190.541L28.807,188.253L28.681,151.959L35.318,154.247C35.5,154.309 35.591,154.592 35.592,155.096L35.713,189.879ZM0,-2.554L0.843,239.031L50.015,255.981C59.317,259.187 63.932,250.583 63.861,230.168L63.616,159.847C63.575,148.253 61.249,140.905 56.638,137.806C61.328,137.66 63.653,131.791 63.612,120.196L63.365,49.12C63.295,29.208 58.564,17.634 49.173,14.396L0,-2.554ZM35.42,105.57C35.421,106.073 35.332,106.294 35.152,106.232L28.514,103.944L28.386,67.272L35.024,69.56C35.204,69.621 35.296,69.905 35.297,70.409L35.42,105.57Z"/>
        </clipPath>
        <g clip-path="url(#_clip9)">
            <path d="M35.713,189.879C35.715,190.382 35.626,190.603 35.445,190.541L28.807,188.253L28.681,151.959L35.318,154.247C35.5,154.308 35.591,154.592 35.592,155.096L35.713,189.879ZM0,-2.554L0.843,239.031L50.015,255.981C59.317,259.187 63.932,250.583 63.861,230.168L63.616,159.847C63.575,148.253 61.249,140.905 56.638,137.806C61.328,137.66 63.653,131.791 63.612,120.196L63.365,49.12C63.295,29.208 58.564,17.634 49.173,14.396L0,-2.554ZM35.42,105.57C35.421,106.073 35.332,106.294 35.152,106.232L28.514,103.944L28.386,67.272L35.024,69.56C35.204,69.621 35.296,69.905 35.297,70.408L35.42,105.57Z" style="fill:none;stroke:black;stroke-width:12px;"/>
        </g>
    </g>
    <g transform="matrix(1,0,0,1,0,126.154)">
        <clipPath id="_clip10">
            <path d="M1091.97,416.179C1091.97,415.676 1091.88,415.455 1091.7,415.517L1085.33,417.711C1085.15,417.774 1085.06,418.057 1085.06,418.561L1084.64,538.03C1084.64,538.535 1084.73,538.755 1084.91,538.694L1091.28,536.498C1091.46,536.436 1091.55,536.153 1091.55,535.649L1091.97,416.179ZM1070.34,603.755C1060.95,606.993 1056.29,598.656 1056.36,578.744L1056.99,397.649C1057.06,377.235 1061.79,365.408 1071.18,362.171L1106.27,350.076C1115.66,346.838 1120.32,355.428 1120.25,375.843L1119.62,556.938C1119.55,576.85 1114.82,588.424 1105.42,591.661L1070.34,603.755Z" clip-rule="nonzero"/>
        </clipPath>
        <g clip-path="url(#_clip10)">
            <rect x="1051.36" y="344.411" width="73.893" height="265.024" style="fill:white;"/>
        </g>
    </g>
    <g transform="matrix(1,0,0,-1,1056.36,730.574)">
        <clipPath id="_clip11">
            <path d="M-60,315.009L123.893,315.009L123.893,-60.015L-60,-60.015L-60,315.009ZM35.61,188.241C35.612,188.744 35.522,188.965 35.342,188.903L28.975,186.709C28.795,186.646 28.703,186.363 28.702,185.859L28.286,66.39C28.283,65.885 28.372,65.665 28.554,65.726L34.92,67.922C35.101,67.984 35.191,68.267 35.194,68.771L35.61,188.241ZM13.985,0.665C4.592,-2.573 -0.069,5.764 0.001,25.676L0.633,206.771C0.704,227.185 5.436,239.012 14.828,242.249L49.912,254.344C59.303,257.582 63.965,248.992 63.893,228.577L63.262,47.482C63.192,27.57 58.461,15.996 49.069,12.759L13.985,0.665Z"/>
        </clipPath>
        <g clip-path="url(#_clip11)">
            <path d="M35.61,188.241C35.612,188.745 35.522,188.965 35.342,188.903L28.975,186.709C28.795,186.646 28.703,186.363 28.702,185.859L28.286,66.39C28.283,65.885 28.372,65.665 28.554,65.726L34.92,67.922C35.101,67.984 35.191,68.267 35.194,68.771L35.61,188.241ZM13.985,0.665C4.592,-2.573 -0.069,5.764 0.001,25.676L0.633,206.771C0.704,227.185 5.436,239.012 14.828,242.249L49.912,254.344C59.303,257.582 63.965,248.992 63.893,228.577L63.262,47.482C63.192,27.57 58.461,15.996 49.069,12.759L13.985,0.665Z" style="fill:none;stroke:black;stroke-width:12px;"/>
        </g>
    </g>
    <g transform="matrix(1,0,0,1,0,78.0452)">
        <clipPath id="_clip12">
            <path d="M1162.73,620.019L1156.13,570.181L1148.91,624.782L1125.07,633L1143.13,497.631L1127.4,390.901L1155.44,381.235L1161.89,431.121L1168.72,376.659L1191.07,368.955L1175.38,484.627L1192.8,609.653L1162.73,620.019Z" clip-rule="nonzero"/>
        </clipPath>
        <g clip-path="url(#_clip12)">
            <rect x="1120.07" y="363.955" width="77.731" height="274.045" style="fill:white;"/>
        </g>
    </g>
    <g transform="matrix(1,0,0,-1,1125.07,711.045)">
        <clipPath id="_clip13">
            <path d="M-60,324.045L127.731,324.045L127.731,-60L-60,-60L-60,324.045ZM37.658,12.981L31.067,62.819L23.842,8.218L0,0L18.061,135.369L2.333,242.099L30.373,251.765L36.828,201.879L43.649,256.341L66,264.045L50.308,148.373L67.731,23.347L37.658,12.981Z"/>
        </clipPath>
        <g clip-path="url(#_clip13)">
            <path d="M37.658,12.982L31.067,62.819L23.842,8.218L0,0L18.061,135.369L2.332,242.099L30.373,251.765L36.828,201.879L43.648,256.341L65.999,264.045L50.307,148.373L67.73,23.347L37.658,12.982Z" style="fill:none;stroke:black;stroke-width:12px;"/>
        </g>
    </g>
    <g transform="matrix(1,0,0,1,0,252.116)">
        <clipPath id="_clip14">
            <path d="M808.876,422.369C808.85,414.722 806.431,407.382 801.621,400.349C796.877,393.263 791.144,388.557 784.422,386.231C777.701,383.905 771.987,384.65 767.214,388.443C762.508,392.184 760.135,397.865 760.161,405.512C760.188,413.159 762.606,420.499 767.35,427.585C772.16,434.619 777.893,439.325 784.615,441.651C791.336,443.977 797.051,443.231 801.757,439.49C806.529,435.698 808.902,430.015 808.876,422.369ZM794.767,417.487C794.779,420.742 793.791,423.123 791.735,424.68C789.747,426.26 787.354,426.567 784.559,425.6C781.698,424.61 779.297,422.645 777.294,419.683C775.289,416.721 774.282,413.65 774.27,410.394C774.259,407.214 775.248,404.834 777.237,403.254C779.225,401.673 781.617,401.367 784.478,402.357C787.274,403.324 789.673,405.288 791.678,408.251C793.749,411.235 794.757,414.307 794.767,417.487Z" clip-rule="nonzero"/>
        </clipPath>
        <g clip-path="url(#_clip14)">
            <rect x="755.161" y="379.908" width="58.715" height="68.068" style="fill:white;"/>
        </g>
    </g>
    <g transform="matrix(1,0,0,-1,760.161,695.089)">
        <clipPath id="_clip15">
            <path d="M-60,118.065L108.715,118.065L108.715,-60.003L-60,-60.003L-60,118.065ZM48.715,20.604C48.689,28.251 46.27,35.591 41.46,42.624C36.716,49.71 30.983,54.416 24.261,56.742C17.54,59.068 11.826,58.323 7.053,54.53C2.347,50.789 -0.026,45.108 0,37.461C0.027,29.814 2.445,22.474 7.189,15.388C11.999,8.354 17.732,3.648 24.454,1.322C31.175,-1.004 36.89,-0.258 41.596,3.483C46.368,7.275 48.741,12.958 48.715,20.604ZM34.606,25.486C34.618,22.231 33.63,19.85 31.574,18.293C29.586,16.713 27.193,16.406 24.398,17.374C21.537,18.363 19.136,20.328 17.133,23.29C15.128,26.252 14.121,29.323 14.109,32.579C14.098,35.759 15.087,38.139 17.076,39.719C19.064,41.3 21.456,41.606 24.317,40.617C27.113,39.649 29.512,37.685 31.517,34.722C33.588,31.738 34.596,28.666 34.606,25.486Z"/>
        </clipPath>
        <g clip-path="url(#_clip15)">
            <path d="M48.715,20.604C48.689,28.251 46.27,35.591 41.46,42.624C36.716,49.71 30.983,54.416 24.261,56.742C17.54,59.068 11.826,58.323 7.053,54.53C2.347,50.789 -0.026,45.108 0,37.461C0.027,29.814 2.445,22.474 7.189,15.388C11.999,8.354 17.732,3.648 24.454,1.322C31.175,-1.004 36.89,-0.258 41.596,3.483C46.368,7.275 48.741,12.958 48.715,20.604ZM34.606,25.486C34.618,22.231 33.629,19.85 31.574,18.293C29.586,16.713 27.193,16.406 24.398,17.374C21.537,18.363 19.136,20.328 17.133,23.29C15.128,26.252 14.12,29.323 14.109,32.579C14.098,35.759 15.087,38.139 17.076,39.719C19.064,41.3 21.456,41.606 24.317,40.617C27.113,39.649 29.512,37.685 31.517,34.722C33.588,31.738 34.596,28.666 34.606,25.486Z" style="fill:none;stroke:black;stroke-width:12px;"/>
        </g>
    </g>
    <g transform="matrix(1,0,0,1,0,276.659)">
        <clipPath id="_clip16">
            <path d="M846.316,402.689L827.083,396.034L827.077,394.292L846.31,400.947L846.254,384.821L812.779,373.238L812.96,425.175L827.201,430.103L827.14,412.236L846.373,418.891L846.316,402.689Z" clip-rule="nonzero"/>
        </clipPath>
        <g clip-path="url(#_clip16)">
            <rect x="807.779" y="368.238" width="43.594" height="66.865" style="fill:white;"/>
        </g>
    </g>
    <g transform="matrix(1,0,0,-1,812.779,706.762)">
        <clipPath id="_clip17">
            <path d="M-60,116.865L93.594,116.865L93.594,-60L-60,-60L-60,116.865ZM33.536,27.414L14.304,34.069L14.297,35.811L33.531,29.156L33.475,45.282L0,56.865L0.181,4.928L14.422,0L14.36,17.867L33.594,11.212L33.536,27.414Z"/>
        </clipPath>
        <g clip-path="url(#_clip17)">
            <path d="M33.537,27.414L14.304,34.069L14.298,35.811L33.531,29.156L33.475,45.282L0,56.865L0.181,4.928L14.422,0L14.36,17.867L33.594,11.212L33.537,27.414Z" style="fill:none;stroke:black;stroke-width:12px;"/>
        </g>
    </g>
    <g transform="matrix(1,0,0,1,0,312.634)">
        <clipPath id="_clip18">
            <path d="M893.705,365.341L859.763,353.596L859.819,369.647L869.736,373.077L869.86,408.888L883.969,413.77L883.845,377.959L893.761,381.391L893.705,365.341Z" clip-rule="nonzero"/>
        </clipPath>
        <g clip-path="url(#_clip18)">
            <rect x="854.763" y="348.596" width="43.997" height="70.174" style="fill:white;"/>
        </g>
    </g>
    <g transform="matrix(1,0,0,-1,859.763,726.404)">
        <clipPath id="_clip19">
            <path d="M-60,120.174L93.997,120.174L93.997,-60L-60,-60L-60,120.174ZM33.941,48.429L0,60.174L0.056,44.123L9.972,40.693L10.097,4.882L24.206,0L24.081,35.811L33.997,32.379L33.941,48.429Z"/>
        </clipPath>
        <g clip-path="url(#_clip19)">
            <path d="M33.941,48.429L0,60.174L0.056,44.123L9.972,40.693L10.097,4.882L24.206,0L24.081,35.811L33.997,32.379L33.941,48.429Z" style="fill:none;stroke:black;stroke-width:12px;"/>
        </g>
    </g>
    <g transform="matrix(1,0,0,1,0,344.16)">
        <clipPath id="_clip20">
            <path d="M936.297,348.553L922.121,343.648L922.184,361.515L912.601,358.199L912.538,340.331L898.363,335.426L898.544,387.288L912.719,392.193L912.657,374.325L922.24,377.641L922.302,395.509L936.477,400.414L936.297,348.553Z" clip-rule="nonzero"/>
        </clipPath>
        <g clip-path="url(#_clip20)">
            <rect x="893.363" y="330.426" width="48.115" height="74.987" style="fill:white;"/>
        </g>
    </g>
    <g transform="matrix(1,0,0,-1,898.363,744.574)">
        <clipPath id="_clip21">
            <path d="M-60,124.987L98.115,124.987L98.115,-60L-60,-60L-60,124.987ZM37.934,51.861L23.759,56.766L23.822,38.899L14.238,42.214L14.175,60.083L0,64.987L0.181,13.125L14.356,8.22L14.294,26.089L23.878,22.773L23.939,4.905L38.115,0L37.934,51.861Z"/>
        </clipPath>
        <g clip-path="url(#_clip21)">
            <path d="M37.934,51.861L23.759,56.766L23.822,38.899L14.238,42.214L14.175,60.082L0,64.987L0.181,13.125L14.356,8.22L14.294,26.088L23.878,22.773L23.939,4.905L38.114,0L37.934,51.861Z" style="fill:none;stroke:black;stroke-width:12px;"/>
        </g>
    </g>
    <g transform="matrix(1,0,0,1,0,372.168)">
        <clipPath id="_clip22">
            <path d="M955.316,361.154L974.548,367.809L974.492,351.682L955.26,345.028L955.253,343.286L974.487,349.941L974.43,333.815L940.956,322.232L941.135,374.018L974.611,385.6L974.555,369.55L955.322,362.895L955.316,361.154Z" clip-rule="nonzero"/>
        </clipPath>
        <g clip-path="url(#_clip22)">
            <rect x="935.956" y="317.232" width="43.655" height="73.368" style="fill:white;"/>
        </g>
    </g>
    <g transform="matrix(1,0,0,-1,940.956,757.768)">
        <clipPath id="_clip23">
            <path d="M-60,123.368L93.655,123.368L93.655,-60L-60,-60L-60,123.368ZM14.36,24.446L33.593,17.791L33.536,33.918L14.304,40.572L14.298,42.314L33.531,35.659L33.475,51.785L0,63.368L0.179,11.582L33.655,0L33.599,16.05L14.366,22.705L14.36,24.446Z"/>
        </clipPath>
        <g clip-path="url(#_clip23)">
            <path d="M14.36,24.446L33.593,17.791L33.537,33.918L14.304,40.572L14.298,42.314L33.531,35.659L33.475,51.785L0,63.368L0.18,11.582L33.656,0L33.599,16.05L14.366,22.705L14.36,24.446Z" style="fill:none;stroke:black;stroke-width:12px;"/>
        </g>
    </g>
    <g transform="matrix(1,0,0,1,0,76.9137)">
        <clipPath id="_clip24">
            <path d="M842.385,515.669C842.327,498.922 838.245,483.271 830.14,468.718C822.148,454.039 812.494,444.749 801.183,440.85C789.871,436.951 780.26,439.601 772.239,448.762C764.329,457.795 760.346,470.665 760.405,487.414C760.463,504.161 764.545,519.812 772.537,534.492C780.642,549.044 790.294,558.334 801.606,562.232C812.917,566.132 822.528,563.481 830.439,554.448C838.461,545.288 842.443,532.418 842.385,515.669ZM818.642,507.485C818.666,514.616 817.008,520.007 813.553,523.785C810.211,527.602 806.187,528.7 801.484,527.078C796.668,525.418 792.627,521.542 789.25,515.408C785.873,509.276 784.173,502.727 784.147,495.597C784.124,488.633 785.783,483.242 789.125,479.424C792.467,475.608 796.491,474.51 801.306,476.17C806.01,477.792 810.05,481.668 813.427,487.802C816.917,493.973 818.617,500.521 818.642,507.485Z" clip-rule="nonzero"/>
        </clipPath>
        <g clip-path="url(#_clip24)">
            <rect x="755.404" y="434.108" width="91.982" height="134.869" style="fill:white;"/>
        </g>
    </g>
    <g transform="matrix(1,0,0,-1,760.404,640.888)">
        <clipPath id="_clip25">
            <path d="M-60,184.866L141.982,184.866L141.982,-60.003L-60,-60.003L-60,184.866ZM81.981,48.305C81.923,65.053 77.841,80.704 69.736,95.257C61.743,109.936 52.09,119.225 40.779,123.124C29.467,127.023 19.856,124.373 11.835,115.213C3.924,106.18 -0.058,93.309 0.001,76.561C0.059,59.813 4.141,44.162 12.133,29.482C20.238,14.93 29.89,5.641 41.202,1.742C52.513,-2.157 62.124,0.493 70.035,9.526C78.057,18.686 82.039,31.557 81.981,48.305ZM58.238,56.489C58.262,49.358 56.604,43.968 53.149,40.189C49.806,36.373 45.783,35.275 41.079,36.897C36.264,38.557 32.223,42.433 28.846,48.566C25.469,54.699 23.768,61.248 23.743,68.377C23.719,75.342 25.379,80.732 28.72,84.55C32.063,88.366 36.086,89.464 40.902,87.804C45.606,86.182 49.646,82.306 53.023,76.173C56.513,70.001 58.213,63.454 58.238,56.489Z"/>
        </clipPath>
        <g clip-path="url(#_clip25)">
            <path d="M81.981,48.305C81.922,65.053 77.841,80.704 69.736,95.257C61.743,109.936 52.09,119.225 40.779,123.124C29.467,127.023 19.856,124.373 11.835,115.213C3.924,106.18 -0.058,93.309 0.001,76.561C0.059,59.813 4.141,44.162 12.133,29.482C20.238,14.93 29.89,5.641 41.202,1.742C52.513,-2.157 62.124,0.493 70.035,9.526C78.057,18.686 82.039,31.557 81.981,48.305ZM58.238,56.489C58.262,49.358 56.604,43.968 53.149,40.189C49.806,36.373 45.783,35.275 41.079,36.897C36.264,38.557 32.223,42.433 28.846,48.566C25.469,54.699 23.768,61.248 23.743,68.377C23.719,75.342 25.379,80.732 28.72,84.55C32.063,88.366 36.086,89.464 40.902,87.804C45.606,86.182 49.646,82.306 53.023,76.173C56.512,70.001 58.213,63.454 58.238,56.489Z" style="fill:none;stroke:black;stroke-width:12px;"/>
        </g>
    </g>
    <g transform="matrix(1,0,0,1,0,123.214)">
        <clipPath id="_clip26">
            <path d="M910.617,436.242L886.761,428.021L887.003,497.334C887.025,503.47 883.682,507.287 879.538,505.858C877.411,505.124 875.502,503.142 874.039,500.651C872.687,498.198 871.782,494.903 871.771,492.085L871.53,422.771L847.788,414.587L848.029,483.901C848.073,496.669 851.698,509.346 857.439,519.772C863.179,530.198 871.148,537.913 879.66,540.847C888.284,543.819 895.659,541.89 901.788,535.058C907.917,528.06 910.903,518.324 910.858,505.556L910.617,436.242Z" clip-rule="nonzero"/>
        </clipPath>
        <g clip-path="url(#_clip26)">
            <rect x="842.788" y="409.587" width="73.071" height="137.611" style="fill:white;"/>
        </g>
    </g>
    <g transform="matrix(1,0,0,-1,847.788,667.033)">
        <clipPath id="_clip27">
            <path d="M-60,189.232L123.071,189.232L123.071,-58.38L-60,-58.38L-60,189.232ZM62.829,107.577L38.973,115.798L39.216,46.484C39.237,40.348 35.895,36.532 31.75,37.961C29.623,38.694 27.714,40.677 26.252,43.168C24.9,45.621 23.994,48.916 23.984,51.734L23.743,121.048L0,129.232L0.241,59.918C0.286,47.149 3.91,34.473 9.651,24.046C15.392,13.621 23.361,5.906 31.873,2.972C40.497,0 47.872,1.929 54,8.761C60.129,15.758 63.115,25.494 63.07,38.263L62.829,107.577Z"/>
        </clipPath>
        <g clip-path="url(#_clip27)">
            <path d="M62.829,107.577L38.973,115.798L39.216,46.484C39.238,40.349 35.895,36.532 31.75,37.961C29.623,38.694 27.714,40.677 26.252,43.168C24.9,45.621 23.994,48.916 23.984,51.734L23.743,121.048L0,129.232L0.241,59.918C0.286,47.149 3.91,34.473 9.651,24.046C15.392,13.621 23.361,5.906 31.873,2.972C40.497,0 47.872,1.929 54,8.761C60.129,15.758 63.115,25.494 63.07,38.263L62.829,107.577Z" style="fill:none;stroke:black;stroke-width:12px;"/>
        </g>
    </g>
    <g transform="matrix(1,0,0,1,0,171.068)">
        <clipPath id="_clip28">
            <path d="M974.453,410.391L917.336,390.704L917.459,425.859L934.145,431.61L934.42,510.044L958.162,518.228L957.889,439.794L974.576,445.545L974.453,410.391Z" clip-rule="nonzero"/>
        </clipPath>
        <g clip-path="url(#_clip28)">
            <rect x="912.336" y="385.704" width="67.239" height="137.524" style="fill:white;"/>
        </g>
    </g>
    <g transform="matrix(1,0,0,-1,917.336,689.296)">
        <clipPath id="_clip29">
            <path d="M-60,187.524L117.24,187.524L117.24,-60L-60,-60L-60,187.524ZM57.117,107.837L0,127.524L0.122,92.369L16.809,86.618L17.083,8.184L40.826,0L40.553,78.434L57.239,72.683L57.117,107.837Z"/>
        </clipPath>
        <g clip-path="url(#_clip29)">
            <path d="M57.117,107.837L0,127.524L0.122,92.369L16.809,86.618L17.083,8.184L40.826,0L40.553,78.434L57.239,72.683L57.117,107.837Z" style="fill:none;stroke:black;stroke-width:12px;"/>
        </g>
    </g>
    <g transform="matrix(1,0,0,1,0,-120.091)">
        <clipPath id="_clip30">
            <path d="M804.224,631.858L813.158,617.141C811.682,617.439 807.743,617.477 804.909,616.503C806.504,615.075 807.79,613.32 808.705,611.074C809.62,608.753 810.104,606.211 810.093,603.28C810.073,597.271 808.268,591.6 804.741,586.216C801.152,580.812 796.894,577.227 791.904,575.512L771.138,568.233L771.314,618.577L784.377,623.064L784.352,615.883L784.475,615.925C786.268,618.518 788.123,620.764 790.223,622.876C792.261,624.894 794.421,626.661 796.641,628.009C797.443,628.577 798.307,629.167 799.108,629.588C799.972,630.031 800.834,630.474 801.697,630.771C802.128,630.992 802.498,631.192 802.929,631.34C803.361,631.489 803.792,631.71 804.224,631.858ZM795.476,594.013C796.466,595.524 796.963,597.086 796.969,598.771C796.975,600.384 796.487,601.606 795.506,602.441C794.585,603.296 793.354,603.458 792,602.993L784.298,600.347L784.256,588.475L791.957,591.122C793.313,591.587 794.548,592.596 795.476,594.013Z" clip-rule="nonzero"/>
        </clipPath>
        <g clip-path="url(#_clip30)">
            <rect x="766.138" y="563.233" width="52.019" height="73.625" style="fill:white;"/>
        </g>
    </g>
    <g transform="matrix(1,0,0,-1,771.138,511.767)">
        <clipPath id="_clip31">
            <path d="M-60,123.625L102.019,123.625L102.019,-60L-60,-60L-60,123.625ZM33.085,0L42.019,14.717C40.543,14.419 36.605,14.382 33.771,15.356C35.366,16.784 36.652,18.538 37.567,20.785C38.481,23.105 38.965,25.647 38.955,28.579C38.934,34.588 37.13,40.259 33.602,45.642C30.014,51.046 25.755,54.631 20.765,56.346L0,63.625L0.176,13.281L13.239,8.794L13.213,15.975L13.337,15.933C15.13,13.341 16.985,11.094 19.084,8.982C21.122,6.964 23.283,5.197 25.502,3.849C26.304,3.282 27.168,2.692 27.969,2.27C28.833,1.828 29.696,1.385 30.559,1.088C30.99,0.866 31.36,0.667 31.791,0.518C32.222,0.37 32.654,0.148 33.085,0ZM24.338,37.846C25.327,36.334 25.825,34.773 25.831,33.088C25.837,31.475 25.349,30.252 24.367,29.418C23.446,28.563 22.216,28.401 20.861,28.865L13.16,31.511L13.117,43.383L20.819,40.737C22.175,40.271 23.41,39.262 24.338,37.846Z"/>
        </clipPath>
        <g clip-path="url(#_clip31)">
            <path d="M33.085,0L42.019,14.717C40.543,14.42 36.605,14.382 33.771,15.356C35.366,16.784 36.652,18.538 37.567,20.785C38.481,23.105 38.965,25.647 38.955,28.579C38.934,34.588 37.13,40.259 33.602,45.642C30.014,51.046 25.755,54.631 20.765,56.346L0,63.625L0.176,13.281L13.239,8.794L13.213,15.975L13.337,15.933C15.13,13.341 16.985,11.094 19.084,8.983C21.122,6.964 23.283,5.197 25.502,3.849C26.305,3.282 27.168,2.692 27.969,2.27C28.833,1.828 29.696,1.385 30.559,1.088C30.99,0.866 31.36,0.667 31.791,0.518C32.222,0.37 32.654,0.148 33.085,0ZM24.338,37.846C25.327,36.334 25.825,34.773 25.831,33.088C25.837,31.475 25.349,30.252 24.367,29.418C23.446,28.563 22.216,28.401 20.861,28.865L13.16,31.511L13.117,43.383L20.819,40.737C22.175,40.271 23.41,39.262 24.338,37.846Z" style="fill:none;stroke:black;stroke-width:12px;"/>
        </g>
    </g>
    <g transform="matrix(1,0,0,1,0,-91.6051)">
        <clipPath id="_clip32">
            <path d="M847.226,598.967L847.171,583.358L829.364,577.241L829.359,575.556L847.165,581.672L847.11,566.063L816.118,555.417L816.294,605.541L847.285,616.188L847.231,600.652L829.425,594.536L829.419,592.85L847.226,598.967Z" clip-rule="nonzero"/>
        </clipPath>
        <g clip-path="url(#_clip32)">
            <rect x="811.118" y="550.417" width="41.168" height="70.771" style="fill:white;"/>
        </g>
    </g>
    <g transform="matrix(1,0,0,-1,816.118,524.583)">
        <clipPath id="_clip33">
            <path d="M-60,120.771L91.168,120.771L91.168,-60L-60,-60L-60,120.771ZM31.108,17.221L31.053,32.83L13.247,38.947L13.241,40.632L31.047,34.516L30.992,50.125L0,60.771L0.176,10.647L31.168,0L31.114,15.536L13.307,21.652L13.302,23.338L31.108,17.221Z"/>
        </clipPath>
        <g clip-path="url(#_clip33)">
            <path d="M31.108,17.221L31.053,32.83L13.247,38.947L13.241,40.632L31.047,34.516L30.992,50.125L0,60.771L0.176,10.647L31.168,0L31.114,15.536L13.307,21.652L13.302,23.338L31.108,17.221Z" style="fill:none;stroke:black;stroke-width:12px;"/>
        </g>
    </g>
    <g transform="matrix(1,0,0,1,0,-57.3655)">
        <clipPath id="_clip34">
            <path d="M873.653,571.097L875.611,567.67L877.596,572.451L873.653,571.097ZM902.496,600.913L875.501,536.452L848.892,582.5L864.049,587.706L866.128,584.102L885.168,590.642L887.401,595.728L902.496,600.913Z" clip-rule="nonzero"/>
        </clipPath>
        <g clip-path="url(#_clip34)">
            <rect x="843.892" y="531.452" width="63.605" height="74.461" style="fill:white;"/>
        </g>
    </g>
    <g transform="matrix(1,0,0,-1,848.892,543.548)">
        <clipPath id="_clip35">
            <path d="M-60,124.461L113.605,124.461L113.605,-60L-60,-60L-60,124.461ZM24.761,29.816L26.719,33.243L28.704,28.462L24.761,29.816ZM53.605,0L26.609,64.461L0,18.414L15.157,13.207L17.237,16.811L36.276,10.271L38.509,5.185L53.605,0Z"/>
        </clipPath>
        <g clip-path="url(#_clip35)">
            <path d="M24.761,29.816L26.719,33.243L28.704,28.462L24.761,29.816ZM53.605,0L26.609,64.461L0,18.414L15.158,13.207L17.237,16.811L36.276,10.271L38.509,5.185L53.605,0Z" style="fill:none;stroke:black;stroke-width:12px;"/>
        </g>
    </g>
    <g transform="matrix(1,0,0,1,0,-30.7052)">
        <clipPath id="_clip36">
            <path d="M927.046,565.486C926.984,565.537 926.923,565.59 926.861,565.643C925.02,567.205 922.745,567.521 920.157,566.632C917.569,565.744 915.285,563.862 913.429,561.027C911.573,558.194 910.64,555.239 910.629,552.088C910.618,549.01 911.533,546.689 913.374,545.126C915.214,543.562 917.49,543.246 920.078,544.135C922.667,545.025 924.949,546.907 926.806,549.74C926.868,549.835 926.868,549.835 926.93,549.928L936.195,542.133C936.133,542.038 936.071,541.944 936.009,541.849C931.555,535.049 926.247,530.664 920.024,528.526C913.862,526.41 908.51,527.134 904.154,530.906C899.736,534.66 897.541,540.199 897.567,547.601C897.592,555.002 899.832,562.066 904.287,568.866C908.681,575.646 914.05,580.052 920.211,582.168C926.435,584.306 931.724,583.561 936.142,579.809C936.204,579.757 936.265,579.705 936.326,579.652L927.046,565.486Z" clip-rule="nonzero"/>
        </clipPath>
        <g clip-path="url(#_clip36)">
            <rect x="892.567" y="522.354" width="48.76" height="65.997" style="fill:white;"/>
        </g>
    </g>
    <g transform="matrix(1,0,0,-1,897.567,552.657)">
        <clipPath id="_clip37">
            <path d="M-60,116.008L98.76,116.008L98.76,-59.989L-60,-59.989L-60,116.008ZM29.479,17.876C29.417,17.825 29.356,17.772 29.295,17.72C27.454,16.157 25.178,15.841 22.591,16.73C20.002,17.618 17.719,19.5 15.863,22.335C14.007,25.168 13.073,28.123 13.063,31.274C13.051,34.353 13.967,36.673 15.808,38.236C17.648,39.8 19.923,40.116 22.512,39.227C25.1,38.338 27.383,36.455 29.24,33.622C29.301,33.527 29.301,33.527 29.363,33.434L38.628,41.229C38.566,41.324 38.505,41.418 38.443,41.513C33.988,48.313 28.68,52.698 22.457,54.836C16.295,56.952 10.944,56.228 6.588,52.456C2.17,48.702 -0.026,43.163 0,35.761C0.025,28.36 2.266,21.296 6.72,14.496C11.114,7.717 16.483,3.31 22.644,1.194C28.868,-0.944 34.158,-0.199 38.575,3.553C38.637,3.605 38.698,3.657 38.76,3.71L29.479,17.876Z"/>
        </clipPath>
        <g clip-path="url(#_clip37)">
            <path d="M29.479,17.876C29.417,17.825 29.356,17.772 29.295,17.72C27.454,16.157 25.178,15.841 22.591,16.73C20.002,17.618 17.719,19.5 15.863,22.335C14.007,25.168 13.073,28.123 13.063,31.274C13.051,34.352 13.967,36.673 15.808,38.236C17.648,39.8 19.923,40.116 22.512,39.227C25.1,38.337 27.383,36.455 29.24,33.622C29.302,33.527 29.302,33.527 29.363,33.434L38.628,41.229C38.566,41.324 38.505,41.418 38.443,41.513C33.988,48.313 28.68,52.698 22.457,54.836C16.295,56.952 10.944,56.228 6.588,52.456C2.17,48.702 -0.026,43.163 0,35.761C0.025,28.36 2.266,21.296 6.72,14.496C11.114,7.716 16.483,3.31 22.644,1.194C28.868,-0.944 34.158,-0.199 38.575,3.553C38.637,3.605 38.698,3.657 38.76,3.71L29.479,17.876Z" style="fill:none;stroke:black;stroke-width:12px;"/>
        </g>
    </g>
    <g transform="matrix(1,0,0,1,0,-5.622)">
        <clipPath id="_clip38">
            <path d="M974.436,523.745L961.312,519.236L961.372,536.531L952.499,533.483L952.439,516.188L939.315,511.68L939.49,561.878L952.614,566.386L952.554,549.092L961.426,552.14L961.487,569.434L974.611,573.942L974.436,523.745Z" clip-rule="nonzero"/>
        </clipPath>
        <g clip-path="url(#_clip38)">
            <rect x="934.315" y="506.68" width="45.296" height="72.261" style="fill:white;"/>
        </g>
    </g>
    <g transform="matrix(1,0,0,-1,939.315,568.32)">
        <clipPath id="_clip39">
            <path d="M-60,122.261L95.296,122.261L95.296,-60L-60,-60L-60,122.261ZM35.121,50.197L21.997,54.706L22.057,37.411L13.184,40.459L13.124,57.754L0,62.261L0.175,12.063L13.299,7.556L13.239,24.85L22.111,21.802L22.172,4.508L35.296,0L35.121,50.197Z"/>
        </clipPath>
        <g clip-path="url(#_clip39)">
            <path d="M35.121,50.197L21.997,54.706L22.057,37.411L13.184,40.459L13.124,57.754L0,62.261L0.175,12.063L13.299,7.556L13.239,24.85L22.111,21.802L22.172,4.508L35.296,0L35.121,50.197Z" style="fill:none;stroke:black;stroke-width:12px;"/>
        </g>
    </g>
</svg>
