<?xml version="1.0" encoding="UTF-8"?>
<svg width="1980px" height="1080px" viewBox="0 0 1980 1080" version="1.1" xmlns="http://www.w3.org/2000/svg" xmlns:xlink="http://www.w3.org/1999/xlink">
    <!-- Generator: Sketch 56.3 (81716) - https://sketch.com -->
    <title>Behance Copy 7</title>
    <desc>Created with Sketch.</desc>
    <g id="Behance-Copy-7" stroke="none" stroke-width="1" fill="none" fill-rule="evenodd">
        <rect fill="#000000" x="0" y="0" width="1980" height="1080"></rect>
        <g id="Group-2" transform="translate(499.000000, -249.000000)">
            <g id="Group-3" fill="#FFFFFF" stroke="#000000" stroke-width="4">
                <polygon id="Triangle-Copy-4" transform="translate(476.000000, 465.500000) scale(1, -1) translate(-476.000000, -465.500000) " points="476 0 952 931 0 931"></polygon>
                <polygon id="Triangle-Copy" transform="translate(476.000000, 465.500000) scale(1, -1) translate(-476.000000, -465.500000) " points="476 0 856 931 96 931"></polygon>
                <polygon id="Triangle-Copy-2" transform="translate(476.000000, 465.500000) scale(1, -1) translate(-476.000000, -465.500000) " points="476 0 792 931 160 931"></polygon>
                <polygon id="Triangle-Copy-3" transform="translate(476.000000, 465.500000) scale(1, -1) translate(-476.000000, -465.500000) " points="476 0 720 931 232 931"></polygon>
                <polygon id="Triangle-Copy-5" transform="translate(476.800000, 465.500000) scale(1, -1) translate(-476.800000, -465.500000) " points="476.8 0 648 931 305.6 931"></polygon>
            </g>
            <polygon id="Rectangle" fill="#000000" points="274.138282 699 478.859816 765.255995 480.138282 1017 282.23499 947.89606"></polygon>
            <polygon id="Rectangle" fill="#000000" transform="translate(578.500000, 858.929226) scale(-1, 1) translate(-578.500000, -858.929226) " points="476.138282 710.858453 681 772.570639 677.720658 1007 476 940.106008"></polygon>
            <g id="slice1" transform="translate(261.000000, 696.000000)" fill="#FFFFFF" fill-rule="nonzero" stroke="#000000" stroke-width="6">
                <g id="BOX" transform="translate(225.000000, 0.000000)">
                    <path d="M32.7011884,123.351534 L31.7999805,123.662197 L31.6954962,153.602375 L32.5970388,153.291601 L32.7011884,123.351534 Z M61.8686593,170.950477 C65.2033778,173.963648 66.6450975,180.334687 66.6123145,189.587926 L66.3647023,260.664093 C66.29113,281.711003 61.0873194,294.443278 50.1508881,298.213417 L-3.01472163,316.539562 L-2.14929251,68.6008874 L49.0376643,50.9563738 C55.0763543,48.8747477 60.0914825,50.8198872 63.0967233,56.4228909 C65.6946116,61.2664221 66.8980229,68.9519121 66.8610675,79.6164186 L66.615737,149.93763 C66.5821123,159.427538 65.0718575,166.454229 61.8686593,170.950477 Z M32.4078093,207.660526 L31.5067361,207.971142 L31.4010798,238.289432 L32.3015372,237.97903 L32.4078093,207.660526 Z M34.0387297,237.380191 L34.0528014,237.37534 C34.0481003,237.376949 34.0434098,237.378566 34.0387297,237.380191 Z" id="Shape"></path>
                    <path d="M103.954094,98.7899093 L103.053276,99.1003712 L102.65362,213.728277 L103.554445,213.417598 L103.954094,98.7899093 Z M105.283333,212.821332 L105.310066,212.812112 C105.301118,212.815155 105.292206,212.818228 105.283333,212.821332 Z M86.3182448,285.745957 L86.3181986,285.745973 C80.2684806,287.831251 75.2316005,286.00353 72.1819983,280.549072 C69.5408801,275.82522 68.3203349,268.316146 68.3567884,257.88782 L68.9889406,76.7934066 C69.0636299,55.2409117 74.2559808,42.2633338 85.2060724,38.4889441 L120.290553,26.3938852 C126.364262,24.3000828 131.410096,26.2218605 134.443914,31.8132417 C137.070091,36.6533322 138.286211,44.3399689 138.248647,55.0082087 L137.617635,236.102731 C137.544062,257.150025 132.340037,269.882056 121.402703,273.652048 L86.3182448,285.745957 Z" id="Shape"></path>
                    <path d="M171.133232,224.10153 L166.639709,258.059169 L136.451143,268.464912 L155.098898,128.696847 L139.068923,19.921534 L172.943148,8.24407691 L176.846698,38.4115222 L180.971065,5.47667728 L209.694424,-4.42353352 L193.403089,115.666287 L211.109953,242.729731 L175.232123,255.096142 L171.133232,224.10153 Z M155.098898,128.696847 L155.154596,128.279385 L155.160301,129.113507 L155.098898,128.696847 Z" id="Path"></path>
                </g>
                <g id="_-OF-THE" transform="translate(0.000000, 190.000000)">
                    <path d="M51.8761025,37.4744597 L51.8761031,37.4746279 C51.9051163,45.9780683 49.1712372,52.5459012 43.6236405,56.954432 C38.0590895,61.3776132 31.2630534,62.2417889 23.6342135,59.6015893 C16.2973291,57.062862 10.0504593,51.9640807 4.8570715,44.3700682 C-0.225580472,36.7776767 -2.81042069,28.8644327 -2.83894882,20.6383047 C-2.86790943,12.1490047 -0.144450608,5.57543804 5.34776262,1.20975724 C10.9697625,-3.25682956 17.7612679,-4.13329605 25.4029407,-1.48865519 C32.7753926,1.06237925 39.0225205,6.1905213 44.0970747,13.7710818 C49.2372735,21.28706 51.8474372,29.2087779 51.8761025,37.4744597 Z M31.7672174,32.6134182 L31.7672152,32.61277 C31.7587961,30.0362348 30.9328637,27.5546939 29.1935688,25.0479316 C27.535604,22.5977418 25.6464411,21.0512309 23.4975141,20.3075641 C21.5697081,19.6409068 20.2511974,19.8056043 19.1028789,20.7186753 C17.8847589,21.6865444 17.261688,23.1860209 17.2699363,25.4993388 C17.279265,28.1325203 18.0928408,30.6268979 19.7785418,33.1180773 C21.4403876,35.5744512 23.331581,37.1164974 25.5406387,37.8804149 C27.4062871,38.5263132 28.7232741,38.3575415 29.9235645,37.4048512 C31.1576254,36.4697658 31.775525,34.9981226 31.7672174,32.6134182 Z" id="Shape"></path>
                    <path d="M70.1540638,56.1125962 L70.2158192,73.9795609 L49.9671843,66.9730793 L49.7643775,8.67958274 L89.246468,22.3412428 L89.3245946,44.8238125 L66.0955734,36.7860794 L67.0765691,33.951005 L70.0765459,33.9391896 L70.0834076,35.6814107 L67.0834309,35.693226 L68.0644787,32.8581696 L89.3081077,40.2093519 L89.3877235,62.7678496 L70.1540638,56.1125962 Z" id="Path"></path>
                    <path d="M126.859274,57.8113147 L126.983928,93.6220863 L106.867853,86.6615671 L106.743199,50.85081 L96.8269181,47.4203889 L96.7486877,25.0122435 L136.697391,38.8360537 L136.775622,61.242908 L126.859274,57.8113147 Z" id="Path"></path>
                    <path d="M159.247748,86.939778 L155.671456,85.7025259 L155.733212,103.570877 L135.550918,96.587398 L135.34808,38.3685916 L155.530414,45.352085 L155.593313,63.2200718 L159.169469,64.4572771 L159.106569,46.590075 L179.289135,53.5736482 L179.491974,111.791306 L159.309503,104.807765 L159.247748,86.939778 Z" id="Path"></path>
                    <path d="M198.316048,96.3117469 L198.321766,98.0528188 L195.321782,98.0626714 L196.302778,95.2275969 L217.547683,102.578784 L217.625914,124.98536 L178.142611,111.325102 L177.941024,53.182086 L217.423064,66.8437285 L217.50119,89.3262982 L194.272169,81.2885652 L195.253165,78.4534907 L198.253142,78.4416753 L198.260003,80.1838964 L195.260027,80.1957118 L196.240923,77.360603 L217.484819,84.7106083 L217.562945,107.194489 L194.335016,99.156656 L195.316064,96.3215996 L198.316048,96.3117469 Z" id="Path"></path>
                </g>
                <g id="OUT-" transform="translate(0.000000, 69.000000)">
                    <path d="M85.3856395,76.572334 L85.3856402,76.5725609 C85.4456032,93.9801861 81.2563554,107.563777 72.6957381,117.338422 C63.9622707,127.311427 53.0647743,130.269183 40.6283059,125.982449 C28.5899506,121.832941 18.3888834,112.077278 9.90268658,96.8403403 C1.63866578,81.6619778 -2.53530638,65.5143988 -2.59577327,48.3376891 C-2.65563192,30.9603346 1.51836323,17.3638328 9.98201266,7.69894129 C18.8107685,-2.38330588 29.7015923,-5.36663957 42.1604175,-1.07219915 C54.2543339,3.09646064 64.4507153,12.908925 72.7612763,28.1718614 C81.1130604,43.1683617 85.3248986,59.3178028 85.3856395,76.572334 Z M55.642669,68.4096431 C55.6188655,61.9081145 54.0274695,55.8720263 50.7995176,50.1623864 C47.7549583,44.6328495 44.2542046,41.273725 40.3287219,39.9200037 C36.6825855,38.6632773 33.9326736,39.4018378 31.3818837,42.3141404 C28.5683645,45.5284711 27.1257578,50.2156912 27.1471974,56.500384 C27.1707544,63.1082176 28.7342585,69.1658242 31.8782749,74.8749294 C34.9321907,80.4214595 38.4347429,83.7672946 42.4616047,85.1552469 C46.0048412,86.3771488 48.751863,85.6277781 51.3392073,82.6747759 C54.2162839,79.5279604 55.6641359,74.873921 55.642669,68.4096431 Z M55.642669,68.4096431 C55.6426684,68.4094844 55.6426679,68.4093256 55.6426674,68.4091669 L55.6426707,68.4101192 C55.6426701,68.4099605 55.6426695,68.4098018 55.642669,68.4096431 Z" id="Shape"></path>
                    <path d="M153.609196,41.3146688 L153.858426,112.759952 C153.904911,126.216148 150.69841,136.651774 144.02105,144.275759 C137.088811,152.003342 128.449624,154.263301 118.682463,150.897649 C109.491341,147.729584 100.95201,139.586303 94.8105032,128.433819 C88.6160409,117.183937 85.073729,103.989539 85.0287948,91.1257728 L84.7727908,17.589187 L114.522669,27.8435164 L114.530088,29.974793 L114.77139,99.2880967 C114.779649,101.549663 115.530207,104.354761 116.626174,106.346047 C117.847511,108.425978 119.269876,109.806652 120.515382,110.236303 C122.308442,110.854385 124.018641,108.901788 124.003263,104.559309 L123.746046,31.0228589 L153.609196,41.3146688 Z" id="Path"></path>
                    <path d="M200.903899,99.0742809 L201.177224,177.508318 L171.42737,167.253997 L171.152902,88.8201146 L154.466346,83.0689431 L154.321862,41.5599848 L217.445914,63.3177628 L217.590399,104.825433 L200.903899,99.0742809 Z" id="Path"></path>
                </g>
                <g id="Group" transform="translate(11.000000, 1.000000)">
                    <path d="M29.5060973,65.4403236 C28.7099629,65.153725 28.0576135,64.842152 26.7660399,64.1798193 L26.7113216,64.1517555 C25.8935787,63.7217106 25.097516,63.2058723 23.9924641,62.4264942 C21.6634324,61.0003461 19.357161,59.1397502 17.0953578,56.8996576 C16.8544008,56.6573071 16.6164094,56.4132106 16.3811527,56.1670953 L16.3917159,59.1805365 L-2.67802105,52.6296143 L-2.87656207,-4.0943155 L1.13073358,-2.68953753 L21.8785072,4.58376177 C27.508259,6.5181416 32.287064,10.5124652 36.2499452,16.4806081 C40.1070402,22.3667302 42.0708221,28.6046057 42.0933517,35.1776309 C42.1047365,38.4183982 41.5745823,41.3457573 40.4836429,44.1144374 C40.1798343,44.8600339 39.8377247,45.5689379 39.4571304,46.2430186 C40.3010812,46.2572362 41.0535519,46.2118639 41.5640343,46.1088252 L48.2744142,44.7543641 L34.5335489,67.3902198 L32.2476057,66.6038333 C31.9743838,66.5098423 31.7863998,66.4332352 31.3944137,66.2651951 C31.1393414,66.1558484 31.0397439,66.1152605 30.953489,66.085588 C30.6335763,65.9755349 30.3345001,65.8493511 30.0143996,65.695611 C29.8977889,65.6396045 29.7824778,65.5820039 29.6449925,65.5116942 C29.6089197,65.4932467 29.5637383,65.4700131 29.5060973,65.4403236 Z M21.9662967,27.5651157 C21.3922524,26.6888521 20.6848722,26.1083753 19.9826713,25.8671784 L16.2706854,24.5918888 L16.2903695,30.1115787 L21.9729343,32.0638806 C22.3631337,32.1976935 22.4235998,32.18857 22.4647177,32.1504032 L22.5627724,32.0632979 C22.8231204,31.8420124 22.9719347,31.4688223 22.9691944,30.6894829 C22.9654939,29.6090757 22.6509341,28.6106135 21.9662967,27.5651157 Z" id="Shape"></path>
                    <path d="M79.2405345,63.5697521 L57.4445786,56.0818023 L58.4193045,53.244566 L61.4192872,53.2343862 L61.4250083,54.9203957 L58.4250256,54.9305755 L59.3995888,52.0932834 L79.2240271,58.902652 L79.2997929,80.7904641 L42.301436,68.0799174 L42.1028963,11.6045705 L79.1026175,24.3137539 L79.1798898,46.2744866 L57.3840975,38.7879902 L58.3586606,35.9506981 L61.3586434,35.9405114 L61.3643645,37.6253793 L58.3643818,37.635566 L59.3391077,34.7983298 L79.1632617,41.6088717 L79.2405345,63.5697521 Z" id="Path"></path>
                    <path d="M107.056133,64.0715526 L107.215326,63.7929074 L106.027238,63.7182805 L103.626921,62.8941299 L103.886925,63.583842 L101.839853,63.4552601 L103.825081,68.2359016 L105.120566,66.8563163 L105.257559,67.2197187 L106.000559,65.9191956 L107.569915,64.2479601 L107.056133,64.0715526 Z M111.949664,87.6864956 L96.4915922,82.3770462 L94.412523,85.9808178 L73.4712433,78.7877458 L104.930467,24.3468277 L136.846735,100.557427 L114.182055,92.7730871 L111.949664,87.6864956 Z" id="Shape"></path>
                    <path d="M156.712778,82.3249733 L169.287035,101.518218 L167.269113,103.233112 C167.230621,103.265926 167.230621,103.265926 167.181346,103.308035 C167.12648,103.354769 167.12648,103.354769 167.084206,103.390082 C161.84131,107.84295 155.449294,108.778194 148.236611,106.300292 C141.347293,103.933996 135.471264,99.0471879 130.77749,91.8048812 C126.006967,84.5224264 123.59417,76.8944366 123.56675,68.906374 C123.537769,60.6825135 126.063465,54.2888817 131.19023,49.9334991 C136.35637,45.4592168 142.810657,44.5152084 149.998222,46.9839433 C156.917255,49.360963 162.737636,54.2009201 167.522301,61.504976 C167.614983,61.6470939 167.614983,61.6470939 167.707666,61.7892118 L169.158363,64.013699 L155.282848,75.6885338 L153.426318,72.8760447 C153.38743,72.8171348 153.38743,72.8171348 153.360262,72.775815 C153.360094,72.7755587 153.360094,72.7755587 153.359926,72.7753024 C153.332658,72.7336563 153.332658,72.7336563 153.297403,72.6795792 C151.798774,70.3932121 150.041738,68.9332671 148.103639,68.2673972 C146.459862,67.7026469 145.300207,67.8714357 144.315792,68.7081576 C143.201059,69.6543665 142.62105,71.1252771 142.629405,73.3732697 C142.637728,75.9198478 143.388478,78.3115904 144.939153,80.6788196 C146.435876,82.9646083 148.193027,84.4244628 150.132534,85.0899617 C151.775197,85.6545786 152.93554,85.4858371 153.918653,84.6513503 C153.957145,84.618536 153.957145,84.618536 154.006419,84.5764275 C154.061285,84.5296928 154.061285,84.5296928 154.127734,84.4740669 L156.712778,82.3249733 Z" id="Path"></path>
                    <path d="M187.433577,100.662059 L184.568542,99.6778572 L184.629185,116.97153 L165.497629,110.40036 L165.300411,53.8508185 L184.431987,60.4219949 L184.491487,77.7170135 L187.357527,78.7014333 L187.296882,61.4060946 L206.428439,67.9789284 L206.625656,124.527153 L187.494221,117.956025 L187.433577,100.662059 Z" id="Path"></path>
                </g>
            </g>
        </g>
    </g>
</svg>