<?xml version="1.0" encoding="UTF-8"?>
<svg width="1980px" height="1080px" viewBox="0 0 1980 1080" version="1.1" xmlns="http://www.w3.org/2000/svg" xmlns:xlink="http://www.w3.org/1999/xlink">
    <!-- Generator: Sketch 53 (72520) - https://sketchapp.com -->
    <title>Behance</title>
    <desc>Created with Sketch.</desc>
    <g id="Behance" stroke="none" stroke-width="1" fill="none" fill-rule="evenodd">
        <path d="M785.62,577.22 C785.62,578.540007 784.520011,579.2 782.32,579.2 C780.853326,579.2 779.533339,579.126667 778.36,578.98 L750.42,578.54 L722.48,578.98 C721.453328,579.126667 720.353339,579.2 719.18,579.2 C716.246652,579.2 714.78,578.466674 714.78,577 C714.78,575.386659 716.75998,574.58 720.72,574.58 C733.626731,574.433333 740.08,573.113346 740.08,570.62 C740.08,570.473333 739.933335,569.886672 739.64,568.86 L737.88,562.92 L736.78,559.84 C735.459993,555.293311 732.233359,545.246744 727.1,529.7 L680.02,529.7 C671.219956,553.166784 666.82,566.659982 666.82,570.18 C666.82,572.233344 667.699991,573.479998 669.46,573.92 C669.900002,574.066667 673.566632,574.359998 680.46,574.8 C684.713355,574.946667 686.84,575.679993 686.84,577 C686.84,578.466674 684.933352,579.2 681.12,579.2 C674.3733,579.2 666.526711,578.90667 657.58,578.32 C655.379989,578.173333 653.106678,578.1 650.76,578.1 C648.413322,578.1 646.140011,578.246665 643.94,578.54 C642.766661,578.686667 641.813337,578.76 641.08,578.76 C639.026656,578.76 638,578.100007 638,576.78 C638,575.459993 640.309977,574.726667 644.93,574.58 C649.550023,574.433333 652.886656,573.736673 654.94,572.49 C656.993344,571.243327 658.606661,568.860018 659.78,565.34 C678.700095,511.366397 694.099941,468.02683 705.98,435.32 C706.273335,433.559991 706.859996,431.580011 707.74,429.38 L708.84,425.42 C709.280002,423.806659 709.866663,423 710.6,423 C711.040002,423 711.406665,423.439996 711.7,424.32 C713.606676,430.040029 717.9333,441.993242 724.68,460.18 C729.960026,474.406738 743.086562,510.119714 764.06,567.32 C765.233339,570.546683 766.736658,572.599996 768.57,573.48 C770.403343,574.360004 774.179971,574.873333 779.9,575.02 C783.713352,575.166667 785.62,575.899993 785.62,577.22 Z M725.78,524.64 C723.433322,518.039967 719.546694,507.11341 714.12,491.86 L703.56,461.72 C697.399969,477.853414 689.993377,498.826538 681.34,524.64 L725.78,524.64 Z M850.96,495.16 C850.96,498.53335 849.933344,501.319989 847.88,503.52 C845.826656,505.720011 843.186683,506.82 839.96,506.82 C837.319987,506.82 835.120009,506.050008 833.36,504.51 C831.599991,502.969992 830.72,501.026678 830.72,498.68 C830.72,496.626656 831.379993,494.866674 832.7,493.4 C834.020007,491.933326 834.68,490.90667 834.68,490.32 C834.68,488.119989 833.066683,487.02 829.84,487.02 C825.733313,487.02 822.213348,489.586641 819.28,494.72 C815.90665,500.733363 814.22,511.879919 814.22,528.16 L814.22,571.72 C814.22,573.480009 814.843327,574.579998 816.09,575.02 C817.336673,575.460002 821.113302,575.753333 827.42,575.9 C829.033341,576.193335 829.84,576.779996 829.84,577.66 C829.84,578.686672 828.886676,579.2 826.98,579.2 C823.60665,579.2 820.453348,579.126667 817.52,578.98 C814.586652,578.833333 809.013374,578.76 800.8,578.76 C796.546645,578.76 793.466676,578.833333 791.56,578.98 C789.653324,579.126667 787.233348,579.2 784.3,579.2 C781.953322,579.2 780.78,578.686672 780.78,577.66 C780.78,576.633328 781.733324,576.12 783.64,576.12 L786.72,576.12 C791.706692,576.12 794.639996,575.533339 795.52,574.36 C795.813335,573.77333 795.96,571.060024 795.96,566.22 L795.96,505.72 C795.96,497.653293 794.750012,492.996673 792.33,491.75 C789.909988,490.503327 786.060026,489.806667 780.78,489.66 C779.019991,489.66 778.14,489.146672 778.14,488.12 C778.14,487.093328 778.873326,486.58 780.34,486.58 L781.88,486.58 C784.080011,486.58 786.279989,486.689999 788.48,486.91 C790.680011,487.130001 791.633335,487.24 791.34,487.24 C796.766694,487.24 802.779967,485.700015 809.38,482.62 L812.24,481.3 L814,480.64 C814.58667,484.160018 814.88,487.679982 814.88,491.2 L814.88,495.6 C819.573357,485.333282 826.173291,480.2 834.68,480.2 C839.373357,480.2 843.259985,481.629986 846.34,484.49 C849.420015,487.350014 850.96,490.906645 850.96,495.16 Z M918.94,565.78 C918.94,567.100007 917.106685,569.44665 913.44,572.82 C907.133302,578.540029 899.653377,581.4 891,581.4 C882.933293,581.4 876.846687,579.346687 872.74,575.24 C870.393322,572.893322 869.22,566.000057 869.22,554.56 L869.22,489 C869.073333,487.533326 868.266674,486.726667 866.8,486.58 L858.44,486.58 C855.213317,486.58 853.6,486.066672 853.6,485.04 C853.6,484.013328 854.406659,483.426667 856.02,483.28 C867.460057,482.253328 876.406634,476.680051 882.86,466.56 C883.740004,465.239993 884.839993,464.58 886.16,464.58 C887.186672,464.58 887.7,465.093328 887.7,466.12 L887.7,467 C887.553333,467.733337 887.48,468.979991 887.48,470.74 C887.48,476.900031 887.77333,480.859991 888.36,482.62 C889.680007,482.913335 891.879985,483.06 894.96,483.06 C903.026707,483.06 908.379987,482.693337 911.02,481.96 C911.60667,481.813333 912.119998,481.74 912.56,481.74 C913.733339,481.74 914.32,482.399993 914.32,483.72 C914.32,485.920011 908.380059,487.02 896.5,487.02 C894.446656,487.02 891.44002,486.946667 887.48,486.8 L887.48,527.5 C887.48,548.033436 887.993328,560.903307 889.02,566.11 C890.046672,571.316693 893.419971,573.92 899.14,573.92 C903.980024,573.92 909.406637,571.206694 915.42,565.78 C916.00667,565.046663 916.666663,564.68 917.4,564.68 C918.426672,564.68 918.94,565.046663 918.94,565.78 Z M1054.68,484.38 C1054.68,485.553339 1053.58001,486.14 1051.38,486.14 C1049.76666,486.14 1048.44667,486.066667 1047.42,485.92 L1045.66,485.92 C1042.57998,485.92 1039.64668,490.246623 1036.86,498.9 C1035.24666,504.473361 1033.70667,510.046639 1032.24,515.62 L1025.42,537.62 C1022.92665,545.246705 1019.26002,557.419916 1014.42,574.14 C1013.09999,579.126692 1011.85334,581.62 1010.68,581.62 C1009.65333,581.62 1008.37001,579.786685 1006.83,576.12 C1005.28999,572.453315 1001.3667,561.966753 995.06,544.66 C993.446659,540.113311 991.026683,533.513377 987.8,524.86 C985.599989,519.139971 983.913339,514.373352 982.74,510.56 C977.019971,526.693414 969.613379,549.499853 960.52,578.98 C959.93333,580.740009 959.053339,581.62 957.88,581.62 C956.706661,581.62 955.680004,580.520011 954.8,578.32 C954.506665,577.293328 953.626674,574.80002 952.16,570.84 L946.88,556.76 C945.413326,552.946648 942.553355,544.366733 938.3,531.02 C934.046645,517.673267 931.553337,509.753346 930.82,507.26 C926.713313,495.526608 923.706676,488.780009 921.8,487.02 C920.479993,486.43333 918.096684,486.14 914.65,486.14 C911.203316,486.14 909.48,485.480007 909.48,484.16 C909.48,483.133328 910.286659,482.62 911.9,482.62 L921.36,482.62 C926.200024,482.766667 931.479971,482.84 937.2,482.84 C939.546678,482.84 941.966654,482.766667 944.46,482.62 L951.72,482.62 C953.773344,482.62 954.8,483.206661 954.8,484.38 C954.8,485.700007 954.066674,486.36 952.6,486.36 L947.1,486.14 C943.579982,485.993333 941.82,486.726659 941.82,488.34 C941.82,489.660007 943.213319,494.27996 946,502.2 C950.840024,515.986736 956.559967,533.293229 963.16,554.12 C969.466698,533.586564 975.186641,515.913407 980.32,501.1 L983.84,490.54 C985.453341,484.966639 986.993326,482.18 988.46,482.18 C989.926674,482.18 991.466659,484.746641 993.08,489.88 C995.720013,498.533377 1001.43996,515.106544 1010.24,539.6 C1011.41334,542.826683 1013.09999,547.666634 1015.3,554.12 L1035.1,487.68 C1035.1,486.506661 1034.22001,485.92 1032.46,485.92 C1031.87333,485.92 1029.74668,485.993333 1026.08,486.14 C1024.46666,486.14 1023.66,485.553339 1023.66,484.38 C1023.66,483.206661 1024.68666,482.62 1026.74,482.62 L1052.04,482.62 C1053.80001,482.62 1054.68,483.206661 1054.68,484.38 Z M1147.74,531.24 C1147.74,545.466738 1143.41338,557.383285 1134.76,566.99 C1126.10662,576.596715 1115.32673,581.4 1102.42,581.4 C1089.07327,581.4 1077.92671,576.596715 1068.98,566.99 C1060.03329,557.383285 1055.56,545.466738 1055.56,531.24 C1055.56,516.57326 1059.92329,504.400048 1068.65,494.72 C1077.37671,485.039952 1088.2666,480.2 1101.32,480.2 C1114.52007,480.2 1125.55662,485.076618 1134.43,494.83 C1143.30338,504.583382 1147.74,516.719927 1147.74,531.24 Z M1127.72,531.02 C1127.72,514.886586 1125.22669,502.346711 1120.24,493.4 C1116.57332,486.799967 1110.41338,483.5 1101.76,483.5 C1093.54663,483.5 1087.13002,487.716625 1082.51,496.15 C1077.88998,504.583376 1075.58,516.279925 1075.58,531.24 C1075.58,546.053407 1078.03664,557.603292 1082.95,565.89 C1087.86336,574.176708 1094.71996,578.32 1103.52,578.32 C1110.2667,578.32 1115.25332,575.753359 1118.48,570.62 C1124.64003,560.939952 1127.72,547.740084 1127.72,531.02 Z M1229.58,495.16 C1229.58,498.53335 1228.55334,501.319989 1226.5,503.52 C1224.44666,505.720011 1221.80668,506.82 1218.58,506.82 C1215.93999,506.82 1213.74001,506.050008 1211.98,504.51 C1210.21999,502.969992 1209.34,501.026678 1209.34,498.68 C1209.34,496.626656 1209.99999,494.866674 1211.32,493.4 C1212.64001,491.933326 1213.3,490.90667 1213.3,490.32 C1213.3,488.119989 1211.68668,487.02 1208.46,487.02 C1204.35331,487.02 1200.83335,489.586641 1197.9,494.72 C1194.52665,500.733363 1192.84,511.879919 1192.84,528.16 L1192.84,571.72 C1192.84,573.480009 1193.46333,574.579998 1194.71,575.02 C1195.95667,575.460002 1199.7333,575.753333 1206.04,575.9 C1207.65334,576.193335 1208.46,576.779996 1208.46,577.66 C1208.46,578.686672 1207.50668,579.2 1205.6,579.2 C1202.22665,579.2 1199.07335,579.126667 1196.14,578.98 C1193.20665,578.833333 1187.63337,578.76 1179.42,578.76 C1175.16665,578.76 1172.08668,578.833333 1170.18,578.98 C1168.27332,579.126667 1165.85335,579.2 1162.92,579.2 C1160.57332,579.2 1159.4,578.686672 1159.4,577.66 C1159.4,576.633328 1160.35332,576.12 1162.26,576.12 L1165.34,576.12 C1170.32669,576.12 1173.26,575.533339 1174.14,574.36 C1174.43333,573.77333 1174.58,571.060024 1174.58,566.22 L1174.58,505.72 C1174.58,497.653293 1173.37001,492.996673 1170.95,491.75 C1168.52999,490.503327 1164.68003,489.806667 1159.4,489.66 C1157.63999,489.66 1156.76,489.146672 1156.76,488.12 C1156.76,487.093328 1157.49333,486.58 1158.96,486.58 L1160.5,486.58 C1162.70001,486.58 1164.89999,486.689999 1167.1,486.91 C1169.30001,487.130001 1170.25333,487.24 1169.96,487.24 C1175.38669,487.24 1181.39997,485.700015 1188,482.62 L1190.86,481.3 L1192.62,480.64 C1193.20667,484.160018 1193.5,487.679982 1193.5,491.2 L1193.5,495.6 C1198.19336,485.333282 1204.79329,480.2 1213.3,480.2 C1217.99336,480.2 1221.87998,481.629986 1224.96,484.49 C1228.04002,487.350014 1229.58,490.906645 1229.58,495.16 Z M1342.88,577.22 C1342.88,578.246672 1340.16669,578.76 1334.74,578.76 C1330.48665,578.76 1326.52669,578.686667 1322.86,578.54 C1315.37996,578.246665 1310.24668,578.1 1307.46,578.1 C1305.55332,578.1 1302.65669,578.246665 1298.77,578.54 C1294.88331,578.833335 1291.98668,578.98 1290.08,578.98 C1288.75999,578.98 1288.1,578.466672 1288.1,577.44 C1288.1,576.266661 1289.49332,575.68 1292.28,575.68 C1299.32004,575.68 1302.84,574.506678 1302.84,572.16 C1302.84,570.106656 1290.52012,555.293471 1265.88,527.72 L1266.1,572.6 C1266.24667,574.800011 1268.29998,575.826667 1272.26,575.68 L1278.2,575.46 C1280.10668,575.46 1281.06,576.046661 1281.06,577.22 C1281.06,578.540007 1279.44668,579.2 1276.22,579.2 C1276.51333,579.2 1276.14667,579.126667 1275.12,578.98 L1269.84,578.98 C1266.31998,578.833333 1261.55336,578.76 1255.54,578.76 L1238.38,578.76 C1234.85998,578.76 1233.1,578.173339 1233.1,577 C1233.1,576.266663 1233.43,575.826667 1234.09,575.68 C1234.75,575.533333 1237.27998,575.386667 1241.68,575.24 C1245.20002,575.093333 1247.03333,574.286674 1247.18,572.82 C1247.47333,571.793328 1247.62,567.980033 1247.62,561.38 L1247.62,453.8 C1247.62,442.213275 1247.54667,436.200002 1247.4,435.76 C1247.10667,434.733328 1244.98002,434.22 1241.02,434.22 L1238.82,434.22 C1237.79333,434.366667 1236.62001,434.44 1235.3,434.44 C1233.68666,434.44 1232.88,433.853339 1232.88,432.68 C1232.88,431.506661 1234.56665,430.92 1237.94,430.92 C1244.98004,430.773333 1252.3133,428.646687 1259.94,424.54 C1261.70001,423.513328 1262.87333,423 1263.46,423 C1265.07334,423 1265.88,429.086606 1265.88,441.26 L1265.88,522.44 C1289.64012,501.173227 1301.52,489.440011 1301.52,487.24 C1301.52,486.359996 1298.66003,485.92 1292.94,485.92 L1291.62,485.92 C1290.74,486.066667 1289.64001,486.14 1288.32,486.14 L1286.12,486.14 C1283.47999,486.14 1282.16,485.553339 1282.16,484.38 C1282.16,483.059993 1284.43331,482.4 1288.98,482.4 L1298,482.4 L1306.14,482.62 L1319.78,482.62 C1325.06003,482.62 1328.14,482.693333 1329.02,482.84 C1329.9,482.986667 1330.34,483.499996 1330.34,484.38 C1330.34,485.406672 1326.89337,485.993333 1320,486.14 C1315.01331,486.286667 1312.00667,486.65333 1310.98,487.24 C1309.21999,488.266672 1307.53334,489.586659 1305.92,491.2 L1278.42,517.82 C1298.80677,540.113445 1313.25329,556.466615 1321.76,566.88 C1325.28002,571.133355 1328.06666,573.699996 1330.12,574.58 C1331.73334,575.313337 1335.32664,575.606667 1340.9,575.46 C1342.22001,575.46 1342.88,576.046661 1342.88,577.22 Z" id="Artwork" fill="#FFFFFF" fill-rule="nonzero"></path>
    </g>
</svg>