<?xml version="1.0" encoding="UTF-8"?>
<svg width="1980px" height="1080px" viewBox="0 0 1980 1080" version="1.1" xmlns="http://www.w3.org/2000/svg" xmlns:xlink="http://www.w3.org/1999/xlink">
    <!-- Generator: Sketch 53 (72520) - https://sketchapp.com -->
    <title>Behance Copy 12</title>
    <desc>Created with Sketch.</desc>
    <g id="Behance-Copy-12" stroke="none" stroke-width="1" fill="none" fill-rule="evenodd">
        <g id="logo2" transform="translate(516.000000, 429.000000)" fill="#FFFFFF">
            <g id="THE-ADITI-WALL" fill-rule="nonzero">
                <path d="M353.827264,63.9085366 L365.69887,63.9085366 L365.69887,11.328128 L385.664967,11.328128 L385.664967,0.44939939 C367.40734,0.44939939 352.028414,0.44939939 333.861168,0.44939939 L333.861168,11.328128 L353.827264,11.328128 L353.827264,63.9085366 Z" id="Path"></path>
                <polygon id="Path" points="503.301846 63.9989604 503.301846 0.539823171 491.520622 0.539823171 491.520622 27.2835061 460.582008 27.2835061 460.582008 0.539823171 448.710402 0.539823171 448.710402 63.9989604 460.582008 63.9989604 460.582008 38.3437622 491.520622 38.3437622 491.520622 63.9989604"></polygon>
                <path d="M617.161612,52.1235305 L581.816589,52.1235305 L581.816589,37.7998598 L615.903023,37.7998598 L615.903023,26.6491799 L581.816589,26.6491799 L581.816589,12.0535579 L617.161612,12.0535579 L617.161612,0.44939939 L570.035365,0.44939939 C570.035365,21.5725305 570.035365,42.7854055 570.035365,63.9085366 L617.161612,63.9085366 L617.161612,52.1235305 Z" id="Path"></path>
                <path d="M56.8563639,222.55604 L69.807145,222.55604 L41.5671443,159.096902 L28.6163632,159.096902 L0.375687989,222.55604 L13.2367626,222.55604 L18.6333149,210.589506 L51.5501926,210.589506 L56.8563639,222.55604 Z M46.7836091,199.438826 L23.3998984,199.438826 L35.0914165,172.423872 L46.7836091,199.438826 Z" id="Shape"></path>
                <path d="M147.7823,159.096902 C140.047984,159.096902 130.783936,159.096902 123.04962,159.096902 L123.04962,222.55604 C130.783936,222.55604 140.047984,222.55604 147.7823,222.55604 C169.817041,222.55604 179.529621,206.32871 179.259827,190.282909 C178.990033,174.599482 169.36716,159.096902 147.7823,159.096902 Z M134.831519,170.42911 L147.7823,170.42911 C161.452756,170.42911 167.208809,180.310457 167.478603,190.192485 C167.748397,200.526631 162.08205,211.042985 147.7823,211.042985 L134.831519,211.042985 L134.831519,170.42911 Z" id="Shape"></path>
                <rect id="Rectangle" x="234.931122" y="159.096902" width="11.7818991" height="63.4591372"></rect>
                <path d="M323.788413,222.55604 L335.660018,222.55604 L335.660018,169.975631 L355.626115,169.975631 L355.626115,159.096902 C337.368488,159.096902 321.989562,159.096902 303.822316,159.096902 L303.822316,169.975631 L323.788413,169.975631 L323.788413,222.55604 Z" id="Path"></path>
                <rect id="Rectangle" x="409.677972" y="159.096902" width="11.7818991" height="63.4591372"></rect>
                <polygon id="Path" points="634.969357 159.096902 621.659076 159.096902 607.268945 204.87853 591.529844 159.096902 583.795527 159.096902 568.506308 204.87853 553.666295 159.096902 540.356014 159.096902 563.46993 222.55604 573.542685 222.55604 581.187295 202.793345 587.752729 182.577171 594.40787 202.611817 602.232567 222.55604 612.305322 222.55604"></polygon>
                <path d="M739.026162,222.55604 L751.976943,222.55604 L723.736942,159.096902 L710.786161,159.096902 L682.546161,222.55604 L695.406561,222.55604 L700.803113,210.589506 L733.719991,210.589506 L739.026162,222.55604 Z M728.953407,199.438826 L705.569697,199.438826 L717.261215,172.423872 L728.953407,199.438826 Z" id="Shape"></path>
                <polygon id="Path" points="805.040005 159.096902 805.040005 222.55604 849.2889 222.55604 849.2889 211.496463 816.911611 211.496463 816.911611 159.096902"></polygon>
                <polygon id="Path" points="904.419932 159.096902 904.419932 222.55604 948.668828 222.55604 948.668828 211.496463 916.291538 211.496463 916.291538 159.096902"></polygon>
            </g>
            <rect id="Shape-1-copy-2" x="697" y="34" width="99" height="9"></rect>
            <rect id="Shape-1-copy-3" x="161" y="34" width="99" height="9"></rect>
        </g>
    </g>
</svg>